<mxfile host="app.diagrams.net" modified="2020-08-20T11:33:25.458Z" agent="5.0 (Windows NT 10.0; Win64; x64) AppleWebKit/537.36 (KHTML, like Gecko) Chrome/84.0.4147.125 Safari/537.36" etag="PDQnAB7BsD0zrwQi9cXj" version="13.6.4" type="github">
  <diagram id="1EMLyv-aDlPW3CLGLThD" name="Page-1">
    <mxGraphModel dx="1038" dy="548" grid="1" gridSize="10" guides="1" tooltips="1" connect="1" arrows="1" fold="1" page="1" pageScale="1" pageWidth="3300" pageHeight="4681" math="0" shadow="0">
      <root>
        <mxCell id="0" />
        <mxCell id="1" parent="0" />
        <mxCell id="2cxDILAhDorEXdLIPszs-1" value="上线流程" style="rounded=1;fillColor=#0065FF;strokeColor=none;html=1;fontColor=#ffffff;align=center;verticalAlign=middle;whiteSpace=wrap;fontSize=18;fontStyle=1;arcSize=50" vertex="1" parent="1">
          <mxGeometry x="209" y="30" width="410" height="40" as="geometry" />
        </mxCell>
        <mxCell id="2cxDILAhDorEXdLIPszs-2" value="正式服" style="dashed=0;html=1;rounded=1;strokeColor=#008364;fontSize=12;align=center;fontStyle=1;strokeWidth=2;fontColor=#008364" vertex="1" parent="1">
          <mxGeometry x="240" y="80" width="160" height="40" as="geometry" />
        </mxCell>
        <mxCell id="2cxDILAhDorEXdLIPszs-3" value="测试服" style="dashed=0;html=1;rounded=1;strokeColor=#008364;fontSize=12;align=center;fontStyle=1;strokeWidth=2;fontColor=#008364;fillColor=#FF0000;" vertex="1" parent="1">
          <mxGeometry x="420" y="80" width="160" height="40" as="geometry" />
        </mxCell>
        <mxCell id="2cxDILAhDorEXdLIPszs-4" value="推拽文件到这里..." style="rounded=1;align=center;fillColor=#F1F2F4;strokeColor=none;html=1;fontColor=#596780;fontSize=12" vertex="1" parent="1">
          <mxGeometry x="255" y="200" width="320" height="60" as="geometry" />
        </mxCell>
        <mxCell id="2cxDILAhDorEXdLIPszs-5" value="" style="rounded=1;arcSize=9;fillColor=#F7F8F9;align=left;spacingLeft=5;strokeColor=#DEE1E6;html=1;strokeWidth=2;fontSize=12" vertex="1" parent="1">
          <mxGeometry x="255" y="270" width="210" height="30" as="geometry" />
        </mxCell>
        <mxCell id="2cxDILAhDorEXdLIPszs-6" value="删除" style="rounded=1;fillColor=#0057D8;align=center;strokeColor=none;html=1;fontColor=#ffffff;fontSize=12" vertex="1" parent="1">
          <mxGeometry x="485" y="270" width="80" height="33" as="geometry" />
        </mxCell>
        <mxCell id="2cxDILAhDorEXdLIPszs-7" value="自定义文件名" style="html=1;shadow=0;dashed=0;shape=mxgraph.atlassian.checkbox_2;fillColor=#0057D8;strokeColor=none;align=left;verticalAlign=middle;fontStyle=0;fontSize=12;labelPosition=right;verticalLabelPosition=middle;spacingLeft=10" vertex="1" parent="1">
          <mxGeometry x="80" y="380" width="12" height="12" as="geometry" />
        </mxCell>
        <mxCell id="2cxDILAhDorEXdLIPszs-8" value="覆盖同名文件" style="rounded=1;fillColor=#F0F2F5;strokeColor=#D8DCE3;align=left;verticalAlign=middle;fontStyle=0;fontSize=12;labelPosition=right;verticalLabelPosition=middle;spacingLeft=10;html=1;shadow=0;dashed=0;arcSize=0;" vertex="1" parent="1">
          <mxGeometry x="198.5" y="380" width="12" height="12" as="geometry" />
        </mxCell>
        <mxCell id="2cxDILAhDorEXdLIPszs-11" value="上传" style="rounded=1;fillColor=#0057D8;align=center;strokeColor=none;html=1;fontColor=#ffffff;fontSize=12" vertex="1" parent="1">
          <mxGeometry x="595" y="270" width="80" height="33" as="geometry" />
        </mxCell>
        <mxCell id="2cxDILAhDorEXdLIPszs-12" value="选择" style="rounded=1;fillColor=#0057D8;align=center;strokeColor=none;html=1;fontColor=#ffffff;fontSize=12" vertex="1" parent="1">
          <mxGeometry x="695" y="268.5" width="80" height="33" as="geometry" />
        </mxCell>
        <mxCell id="2cxDILAhDorEXdLIPszs-13" value="韩文-code" style="rounded=1;arcSize=9;fillColor=#F7F8F9;align=left;spacingLeft=5;strokeColor=#DEE1E6;html=1;strokeWidth=2;fontSize=12" vertex="1" parent="1">
          <mxGeometry x="50" y="440" width="210" height="30" as="geometry" />
        </mxCell>
        <mxCell id="2cxDILAhDorEXdLIPszs-14" value="韩文-code" style="rounded=1;arcSize=9;fillColor=#F7F8F9;align=left;spacingLeft=5;strokeColor=#DEE1E6;html=1;strokeWidth=2;fontSize=12" vertex="1" parent="1">
          <mxGeometry x="50" y="480" width="210" height="30" as="geometry" />
        </mxCell>
        <mxCell id="2cxDILAhDorEXdLIPszs-15" value="韩文-code" style="rounded=1;arcSize=9;fillColor=#F7F8F9;align=left;spacingLeft=5;strokeColor=#DEE1E6;html=1;strokeWidth=2;fontSize=12" vertex="1" parent="1">
          <mxGeometry x="50" y="520" width="210" height="30" as="geometry" />
        </mxCell>
        <mxCell id="2cxDILAhDorEXdLIPszs-35" style="edgeStyle=orthogonalEdgeStyle;rounded=0;orthogonalLoop=1;jettySize=auto;html=1;" edge="1" parent="1" source="2cxDILAhDorEXdLIPszs-16">
          <mxGeometry relative="1" as="geometry">
            <mxPoint x="670" y="380" as="targetPoint" />
            <Array as="points">
              <mxPoint x="310" y="380" />
              <mxPoint x="670" y="380" />
            </Array>
          </mxGeometry>
        </mxCell>
        <mxCell id="2cxDILAhDorEXdLIPszs-16" value="信息" style="dashed=0;html=1;rounded=1;strokeColor=#008364;fontSize=12;align=center;fontStyle=1;strokeWidth=2;fontColor=#008364" vertex="1" parent="1">
          <mxGeometry x="280" y="440" width="60" height="30" as="geometry" />
        </mxCell>
        <mxCell id="2cxDILAhDorEXdLIPszs-17" value="信息" style="dashed=0;html=1;rounded=1;strokeColor=#008364;fontSize=12;align=center;fontStyle=1;strokeWidth=2;fontColor=#008364" vertex="1" parent="1">
          <mxGeometry x="280" y="480" width="60" height="30" as="geometry" />
        </mxCell>
        <mxCell id="2cxDILAhDorEXdLIPszs-18" value="信息" style="dashed=0;html=1;rounded=1;strokeColor=#008364;fontSize=12;align=center;fontStyle=1;strokeWidth=2;fontColor=#008364" vertex="1" parent="1">
          <mxGeometry x="280" y="520" width="60" height="30" as="geometry" />
        </mxCell>
        <mxCell id="2cxDILAhDorEXdLIPszs-22" value="选择" style="html=1;shadow=0;dashed=0;shape=mxgraph.atlassian.checkbox_2;fillColor=#0057D8;strokeColor=none;align=left;verticalAlign=middle;fontStyle=0;fontSize=12;labelPosition=right;verticalLabelPosition=middle;spacingLeft=10" vertex="1" parent="1">
          <mxGeometry x="370" y="449" width="20" height="21" as="geometry" />
        </mxCell>
        <mxCell id="2cxDILAhDorEXdLIPszs-23" value="选择" style="html=1;shadow=0;dashed=0;shape=mxgraph.atlassian.checkbox_2;fillColor=#0057D8;strokeColor=none;align=left;verticalAlign=middle;fontStyle=0;fontSize=12;labelPosition=right;verticalLabelPosition=middle;spacingLeft=10" vertex="1" parent="1">
          <mxGeometry x="370" y="489" width="20" height="21" as="geometry" />
        </mxCell>
        <mxCell id="2cxDILAhDorEXdLIPszs-24" value="选择" style="html=1;shadow=0;dashed=0;shape=mxgraph.atlassian.checkbox_2;fillColor=#0057D8;strokeColor=none;align=left;verticalAlign=middle;fontStyle=0;fontSize=12;labelPosition=right;verticalLabelPosition=middle;spacingLeft=10" vertex="1" parent="1">
          <mxGeometry x="370" y="524.5" width="20" height="21" as="geometry" />
        </mxCell>
        <mxCell id="2cxDILAhDorEXdLIPszs-25" value="" style="rounded=1;fillColor=#ffffff;strokeColor=#DFE1E5;shadow=1;html=1;arcSize=4;align=center;" vertex="1" parent="1">
          <mxGeometry x="677" y="370" width="150" height="238" as="geometry" />
        </mxCell>
        <mxCell id="2cxDILAhDorEXdLIPszs-26" value="id:&quot;107&quot;" style="rounded=0;fillColor=#F4F5F7;strokeColor=none;shadow=0;html=1;align=center;fontSize=12;spacingLeft=10;fontColor=#253858;resizeWidth=1" vertex="1" parent="2cxDILAhDorEXdLIPszs-25">
          <mxGeometry width="150" height="33" relative="1" as="geometry">
            <mxPoint y="6" as="offset" />
          </mxGeometry>
        </mxCell>
        <mxCell id="2cxDILAhDorEXdLIPszs-27" value="cnName:&quot;韩文&quot;" style="rounded=0;fillColor=none;strokeColor=none;shadow=0;html=1;align=center;fontSize=12;spacingLeft=10;fontColor=#253858;resizeWidth=1" vertex="1" parent="2cxDILAhDorEXdLIPszs-25">
          <mxGeometry width="150" height="33" relative="1" as="geometry">
            <mxPoint y="39" as="offset" />
          </mxGeometry>
        </mxCell>
        <mxCell id="2cxDILAhDorEXdLIPszs-28" value="versinCode:&quot;1&quot;" style="rounded=0;fillColor=none;strokeColor=none;shadow=0;html=1;align=center;fontSize=12;spacingLeft=10;fontColor=#253858;resizeWidth=1" vertex="1" parent="2cxDILAhDorEXdLIPszs-25">
          <mxGeometry width="150" height="33" relative="1" as="geometry">
            <mxPoint y="72" as="offset" />
          </mxGeometry>
        </mxCell>
        <mxCell id="2cxDILAhDorEXdLIPszs-29" value="versinName:&quot;1&quot;" style="rounded=0;fillColor=none;strokeColor=none;shadow=0;html=1;align=center;fontSize=12;spacingLeft=10;fontColor=#253858;resizeWidth=1" vertex="1" parent="2cxDILAhDorEXdLIPszs-25">
          <mxGeometry y="95.91044776119402" width="150" height="29.305970149253728" as="geometry" />
        </mxCell>
        <mxCell id="2cxDILAhDorEXdLIPszs-30" value="..." style="rounded=0;fillColor=none;strokeColor=none;shadow=0;html=1;align=center;fontSize=12;spacingLeft=10;fontColor=#253858;resizeWidth=1" vertex="1" parent="2cxDILAhDorEXdLIPszs-25">
          <mxGeometry y="125.21641791044776" width="150" height="29.305970149253728" as="geometry" />
        </mxCell>
        <mxCell id="2cxDILAhDorEXdLIPszs-31" value="downUrl:&quot;http:/xxx&quot;" style="rounded=0;fillColor=none;strokeColor=none;shadow=0;html=1;align=center;fontSize=12;spacingLeft=10;fontColor=#253858;resizeWidth=1" vertex="1" parent="2cxDILAhDorEXdLIPszs-25">
          <mxGeometry y="154.52238805970148" width="150" height="29.305970149253728" as="geometry" />
        </mxCell>
        <mxCell id="2cxDILAhDorEXdLIPszs-32" value="md5:&quot;xxxxx&quot;" style="rounded=0;fillColor=none;strokeColor=none;shadow=0;html=1;align=center;fontSize=12;spacingLeft=10;fontColor=#253858;resizeWidth=1" vertex="1" parent="2cxDILAhDorEXdLIPszs-25">
          <mxGeometry y="183.8283582089552" width="150" height="29.305970149253728" as="geometry" />
        </mxCell>
        <mxCell id="2cxDILAhDorEXdLIPszs-64" style="edgeStyle=orthogonalEdgeStyle;rounded=0;orthogonalLoop=1;jettySize=auto;html=1;" edge="1" parent="1">
          <mxGeometry relative="1" as="geometry">
            <mxPoint x="860" y="270" as="targetPoint" />
            <mxPoint x="550" y="430" as="sourcePoint" />
            <Array as="points">
              <mxPoint x="550" y="360" />
              <mxPoint x="860" y="360" />
              <mxPoint x="860" y="270" />
            </Array>
          </mxGeometry>
        </mxCell>
        <mxCell id="2cxDILAhDorEXdLIPszs-36" value="miniSogouVersion" style="rounded=1;arcSize=9;fillColor=#F7F8F9;align=left;spacingLeft=5;strokeColor=#DEE1E6;html=1;strokeWidth=2;fontSize=12" vertex="1" parent="1">
          <mxGeometry x="440" y="440" width="110" height="30" as="geometry" />
        </mxCell>
        <mxCell id="2cxDILAhDorEXdLIPszs-37" value="maxSogouVersion" style="rounded=1;arcSize=9;fillColor=#F7F8F9;align=left;spacingLeft=5;strokeColor=#DEE1E6;html=1;strokeWidth=2;fontSize=12" vertex="1" parent="1">
          <mxGeometry x="560" y="440" width="110" height="30" as="geometry" />
        </mxCell>
        <mxCell id="2cxDILAhDorEXdLIPszs-38" value="miniSogouVersion" style="rounded=1;arcSize=9;fillColor=#F7F8F9;align=left;spacingLeft=5;strokeColor=#DEE1E6;html=1;strokeWidth=2;fontSize=12" vertex="1" parent="1">
          <mxGeometry x="440" y="484.5" width="110" height="30" as="geometry" />
        </mxCell>
        <mxCell id="2cxDILAhDorEXdLIPszs-39" value="maxSogouVersion" style="rounded=1;arcSize=9;fillColor=#F7F8F9;align=left;spacingLeft=5;strokeColor=#DEE1E6;html=1;strokeWidth=2;fontSize=12" vertex="1" parent="1">
          <mxGeometry x="560" y="484.5" width="110" height="30" as="geometry" />
        </mxCell>
        <mxCell id="2cxDILAhDorEXdLIPszs-40" value="miniSogouVersion" style="rounded=1;arcSize=9;fillColor=#F7F8F9;align=left;spacingLeft=5;strokeColor=#DEE1E6;html=1;strokeWidth=2;fontSize=12" vertex="1" parent="1">
          <mxGeometry x="440" y="524.5" width="110" height="30" as="geometry" />
        </mxCell>
        <mxCell id="2cxDILAhDorEXdLIPszs-41" value="maxSogouVersion" style="rounded=1;arcSize=9;fillColor=#F7F8F9;align=left;spacingLeft=5;strokeColor=#DEE1E6;html=1;strokeWidth=2;fontSize=12" vertex="1" parent="1">
          <mxGeometry x="560" y="524.5" width="110" height="30" as="geometry" />
        </mxCell>
        <mxCell id="2cxDILAhDorEXdLIPszs-42" value="预览" style="rounded=1;fillColor=#0057D8;align=center;strokeColor=none;html=1;fontColor=#ffffff;fontSize=12" vertex="1" parent="1">
          <mxGeometry x="102.5" y="680" width="80" height="33" as="geometry" />
        </mxCell>
        <mxCell id="2cxDILAhDorEXdLIPszs-43" value="配置对比" style="dashed=0;html=1;rounded=1;strokeColor=#008364;fontSize=12;align=center;fontStyle=1;strokeWidth=2;fontColor=#008364" vertex="1" parent="1">
          <mxGeometry x="222.5" y="681.5" width="60" height="30" as="geometry" />
        </mxCell>
        <mxCell id="2cxDILAhDorEXdLIPszs-45" value="" style="shape=flexArrow;endArrow=classic;html=1;" edge="1" parent="1">
          <mxGeometry width="50" height="50" relative="1" as="geometry">
            <mxPoint x="168.5" y="640" as="sourcePoint" />
            <mxPoint x="168.5" y="670" as="targetPoint" />
          </mxGeometry>
        </mxCell>
        <mxCell id="2cxDILAhDorEXdLIPszs-46" value="" style="shape=flexArrow;endArrow=classic;html=1;" edge="1" parent="1">
          <mxGeometry width="50" height="50" relative="1" as="geometry">
            <mxPoint x="146" y="388" as="sourcePoint" />
            <mxPoint x="146" y="418" as="targetPoint" />
          </mxGeometry>
        </mxCell>
        <mxCell id="2cxDILAhDorEXdLIPszs-47" value="&lt;span style=&quot;font-size: 11px&quot;&gt;&lt;font color=&quot;#ff3333&quot;&gt;服务器json文件和预上线修改对比&lt;/font&gt;&lt;/span&gt;" style="rounded=1;arcSize=3;fillColor=#ffffff;strokeColor=#DFE1E5;strokeWidth=1;shadow=1;align=left;html=1;whiteSpace=wrap;spacingLeft=20;spacingRight=20;fontSize=12" vertex="1" parent="1">
          <mxGeometry x="80" y="720" width="225" height="240" as="geometry" />
        </mxCell>
        <mxCell id="2cxDILAhDorEXdLIPszs-48" value="上线" style="rounded=1;fillColor=#0057D8;align=center;strokeColor=none;html=1;fontColor=#ffffff;fontSize=12" vertex="1" parent="1">
          <mxGeometry x="80" y="970" width="80" height="33" as="geometry" />
        </mxCell>
        <mxCell id="2cxDILAhDorEXdLIPszs-49" value="返回" style="rounded=1;fillColor=#0057D8;align=center;strokeColor=none;html=1;fontColor=#ffffff;fontSize=12" vertex="1" parent="1">
          <mxGeometry x="209" y="970" width="80" height="33" as="geometry" />
        </mxCell>
        <mxCell id="2cxDILAhDorEXdLIPszs-50" value="" style="endArrow=classic;html=1;" edge="1" parent="1">
          <mxGeometry width="50" height="50" relative="1" as="geometry">
            <mxPoint x="310" y="992.5" as="sourcePoint" />
            <mxPoint x="850" y="485" as="targetPoint" />
            <Array as="points">
              <mxPoint x="890" y="990" />
              <mxPoint x="890" y="485" />
            </Array>
          </mxGeometry>
        </mxCell>
        <mxCell id="2cxDILAhDorEXdLIPszs-51" value="FR:xxxx" style="rounded=1;arcSize=9;fillColor=#F7F8F9;align=left;spacingLeft=5;strokeColor=#DEE1E6;html=1;strokeWidth=2;fontSize=12" vertex="1" parent="1">
          <mxGeometry x="50" y="590" width="110" height="30" as="geometry" />
        </mxCell>
        <mxCell id="2cxDILAhDorEXdLIPszs-52" value="厂家:Oppo" style="rounded=1;arcSize=9;fillColor=#F7F8F9;align=left;spacingLeft=5;strokeColor=#DEE1E6;html=1;strokeWidth=2;fontSize=12" vertex="1" parent="1">
          <mxGeometry x="200" y="590" width="110" height="30" as="geometry" />
        </mxCell>
        <mxCell id="2cxDILAhDorEXdLIPszs-53" value="Oppo" style="rounded=1;fillColor=#253858;strokeColor=none;html=1;fontColor=#ffffff;align=left;fontSize=12;spacingLeft=10" vertex="1" parent="1">
          <mxGeometry x="320" y="590" width="100" height="33" as="geometry" />
        </mxCell>
        <mxCell id="2cxDILAhDorEXdLIPszs-54" value="" style="shape=triangle;direction=south;fillColor=#ffffff;strokeColor=none;html=1" vertex="1" parent="2cxDILAhDorEXdLIPszs-53">
          <mxGeometry x="1" y="0.5" width="12" height="6" relative="1" as="geometry">
            <mxPoint x="-20" y="-3" as="offset" />
          </mxGeometry>
        </mxCell>
        <mxCell id="2cxDILAhDorEXdLIPszs-55" value="浏览" style="dashed=0;html=1;rounded=1;strokeColor=#008364;fontSize=12;align=center;fontStyle=1;strokeWidth=2;fontColor=#008364" vertex="1" parent="1">
          <mxGeometry x="250" y="135" width="120" height="20" as="geometry" />
        </mxCell>
        <mxCell id="2cxDILAhDorEXdLIPszs-56" value="浏览" style="rounded=1;fillColor=#0065FF;strokeColor=none;html=1;fontColor=#ffffff;align=center;verticalAlign=middle;whiteSpace=wrap;fontSize=18;fontStyle=1;arcSize=50" vertex="1" parent="1">
          <mxGeometry x="230" y="1080" width="410" height="40" as="geometry" />
        </mxCell>
        <mxCell id="2cxDILAhDorEXdLIPszs-57" value="主线" style="rounded=1;strokeColor=none;html=1;fontColor=#ffffff;align=center;verticalAlign=middle;whiteSpace=wrap;fontSize=18;fontStyle=1;arcSize=50;fillColor=#FF3333;" vertex="1" parent="1">
          <mxGeometry x="80" y="1160" width="90" height="40" as="geometry" />
        </mxCell>
        <mxCell id="2cxDILAhDorEXdLIPszs-58" value="Oppo" style="rounded=1;fillColor=#0065FF;strokeColor=none;html=1;fontColor=#ffffff;align=center;verticalAlign=middle;whiteSpace=wrap;fontSize=18;fontStyle=1;arcSize=50" vertex="1" parent="1">
          <mxGeometry x="198.5" y="1160" width="90" height="40" as="geometry" />
        </mxCell>
        <mxCell id="2cxDILAhDorEXdLIPszs-59" value="小米" style="rounded=1;fillColor=#0065FF;strokeColor=none;html=1;fontColor=#ffffff;align=center;verticalAlign=middle;whiteSpace=wrap;fontSize=18;fontStyle=1;arcSize=50" vertex="1" parent="1">
          <mxGeometry x="325" y="1160" width="90" height="40" as="geometry" />
        </mxCell>
        <mxCell id="2cxDILAhDorEXdLIPszs-60" value="&lt;font color=&quot;#ff3333&quot;&gt;&lt;span style=&quot;font-size: 11px&quot;&gt;Json配置文件&lt;/span&gt;&lt;/font&gt;" style="rounded=1;arcSize=3;fillColor=#ffffff;strokeColor=#DFE1E5;strokeWidth=1;shadow=1;align=center;html=1;whiteSpace=wrap;spacingLeft=20;spacingRight=20;fontSize=12" vertex="1" parent="1">
          <mxGeometry x="80" y="1230" width="230" height="360" as="geometry" />
        </mxCell>
        <mxCell id="2cxDILAhDorEXdLIPszs-61" value="修改历史" style="rounded=1;fillColor=#0057D8;align=center;strokeColor=none;html=1;fontColor=#ffffff;fontSize=12" vertex="1" parent="1">
          <mxGeometry x="85" y="1620" width="80" height="33" as="geometry" />
        </mxCell>
        <mxCell id="2cxDILAhDorEXdLIPszs-62" value="保存" style="rounded=1;fillColor=#0057D8;align=center;strokeColor=none;html=1;fontColor=#ffffff;fontSize=12" vertex="1" parent="1">
          <mxGeometry x="85" y="1670" width="80" height="33" as="geometry" />
        </mxCell>
        <mxCell id="2cxDILAhDorEXdLIPszs-63" value="发布" style="rounded=1;fillColor=#0057D8;align=center;strokeColor=none;html=1;fontColor=#ffffff;fontSize=12" vertex="1" parent="1">
          <mxGeometry x="198.5" y="1670" width="80" height="33" as="geometry" />
        </mxCell>
        <mxCell id="2cxDILAhDorEXdLIPszs-65" value="&lt;b&gt;同min max版本具有替换功能，如果没有，具有插入功能。修改的内容可以从下面预览到。&lt;br&gt;确认修改无误，才走到上线发布流程。&lt;br&gt;&lt;/b&gt;" style="rounded=1;arcSize=3;fillColor=#ffffff;strokeColor=#DFE1E5;strokeWidth=1;shadow=1;align=left;html=1;whiteSpace=wrap;spacingLeft=20;spacingRight=20;fontSize=12" vertex="1" parent="1">
          <mxGeometry x="770" y="135" width="170" height="130" as="geometry" />
        </mxCell>
        <mxCell id="2cxDILAhDorEXdLIPszs-66" value="" style="shape=flexArrow;endArrow=classic;html=1;" edge="1" parent="1">
          <mxGeometry width="50" height="50" relative="1" as="geometry">
            <mxPoint x="142" y="250" as="sourcePoint" />
            <mxPoint x="142" y="350" as="targetPoint" />
          </mxGeometry>
        </mxCell>
        <mxCell id="2cxDILAhDorEXdLIPszs-67" value="布局编辑器导入" style="dashed=0;html=1;rounded=1;fontSize=12;align=center;fontStyle=1;strokeWidth=2;strokeColor=#7EA6E0;fontColor=#7EA6E0;" vertex="1" parent="1">
          <mxGeometry x="70" y="170" width="130" height="20" as="geometry" />
        </mxCell>
        <mxCell id="2cxDILAhDorEXdLIPszs-68" value="电脑导入" style="dashed=0;html=1;rounded=1;fontSize=12;align=center;fontStyle=1;strokeWidth=2;strokeColor=#7EA6E0;fontColor=#7EA6E0;" vertex="1" parent="1">
          <mxGeometry x="320" y="170" width="130" height="20" as="geometry" />
        </mxCell>
      </root>
    </mxGraphModel>
  </diagram>
</mxfile>
